mtllib road_cornerLines_mesh.mtl
g road_cornerLines_mesh
v 9.530851 -0.1947958 -3.318838
v 9.530851 0 -3.318838
v 12.39998 0 -3.318838
v 2.399975 0 -13.31885
v 9.234655 -0.1947958 -3.318838
v 12.39997 0 -13.31885
v 9.530848 0 -10.44972
v 9.530848 -0.1947958 -10.44972
v 9.234652 -0.1947958 -10.15352
v 2.399975 -0.1947958 -10.15353
v 2.399975 0 -10.44972
v 2.399975 -0.1947958 -10.44972
v 12.39998 -0.1947958 -3.318838
v 2.399975 -0.1947958 -13.31885
v 12.39997 -0.1947958 -13.31885
v -2.600015 0 -13.31885
v -0.1000199 0 -13.31885
v -0.1000199 0 -10.44972
v -0.1000199 -0.1947958 -10.44972
v -0.1000199 -0.1947958 -10.15353
v -2.600015 -0.1947958 -10.15353
v -2.600015 0 -10.44972
v -2.600015 -0.1947958 -10.44972
v -0.1000199 -0.1947958 -13.31885
v -2.600015 -0.1947958 -13.31885
v -7.600005 0 -13.31885
v -5.10001 0 -13.31885
v -5.10001 0 -10.44972
v -5.10001 -0.1947958 -10.44972
v -5.10001 -0.1947958 -10.15353
v -7.600005 -0.1947958 -10.15353
v -7.600005 0 -10.44972
v -7.600005 -0.1947958 -10.44972
v -5.10001 -0.1947958 -13.31885
v -7.600005 -0.1947958 -13.31885
v -4.730879 -0.1947958 3.812024
v -4.730879 0 3.812024
v -7.6 0 6.681152
v -4.434686 -0.1947958 3.51583
v -7.600003 -0.1947958 3.51583
v -7.600003 0 3.812024
v -7.600003 -0.1947958 3.812024
v -4.434684 -0.1947958 6.68115
v -4.730879 0 6.68115
v -4.730879 -0.1947958 6.68115
v 9.530853 -0.1947958 6.68115
v 9.530853 0 6.68115
v 12.39998 0 6.68115
v 12.39998 0 1.68116
v 9.234659 -0.1947958 6.68115
v 12.39998 0 4.181155
v 9.530853 0 4.181155
v 9.530853 -0.1947958 4.181155
v 9.234659 -0.1947958 4.181155
v 9.234659 -0.1947958 1.68116
v 9.530853 0 1.68116
v 9.530853 -0.1947958 1.68116
v 12.39998 -0.1947958 6.68115
v 12.39998 -0.1947958 4.181155
v 12.39998 -0.1947958 1.68116
v 12.39998 0 -0.8188343
v 9.530853 0 -0.8188343
v 9.530853 -0.1947958 -0.8188343
v 9.234659 -0.1947958 -0.8188343
v 12.39998 -0.1947958 -0.8188343
v 9.234652 -0.1947958 -6.736185
v 9.530848 -0.1947958 -6.736185
v 9.530848 0 -6.736185
v 12.39997 0 -6.736185
v 12.39997 -0.1947958 -6.736185
v 5.817314 -0.1947958 -13.31885
v 5.817314 0 -13.31885
v 5.817314 0 -10.44972
v 5.817314 -0.1947958 -10.44972
v 5.817314 -0.1947958 -10.15352
v 9.530848 -1.192093E-07 -13.31885
v 12.39997 0 -10.44972
v 1.955092 -0.1947958 5.243478
v 1.955092 -0.1947958 0.199367
v 2.844862 -0.1947958 5.243478
v 1.955092 -0.1947958 3.20655
v 2.844862 -0.1947958 3.20655
v 2.844862 -0.1947958 0.1993666
v 2.844862 -0.1947958 -1.837561
v -1.135582 -0.1947958 -2.873962
v 1.955092 -0.1947958 -1.837561
v 0.9013457 -0.1947958 -2.873962
v 0.9013457 -0.1947958 -3.763733
v -6.118469 -0.1947958 -2.873962
v -4.081541 -0.1947958 -2.873962
v -4.081541 -0.1947958 -3.763733
v -1.135582 -0.1947958 -3.763733
v -6.118469 -0.1947958 -3.763733
v -6.118469 -0.1947958 -3.318848
v -4.081541 -0.1947958 -3.318848
v -1.135582 -0.1947958 -3.318848
v 0.9013457 -0.1947958 -3.318848
v 2.399977 -0.1947958 0.1993666
v 2.399977 -0.1947958 -1.837561
v 2.399977 -0.1947958 5.243478
v 2.399977 -0.1947958 3.20655
v 9.530848 0 -10.44972
v 9.530848 0 -6.736185
v 9.530848 -0.1947958 -6.736185
v 9.530848 -0.1947958 -10.44972
v 9.530848 -0.1947958 -6.736185
v 9.530848 0 -10.44972
v 5.817314 0 -10.44972
v 9.530848 0 -10.44972
v 9.530848 -0.1947958 -10.44972
v 9.530848 -0.1947958 -10.44972
v 9.234652 -0.1947958 -10.15352
v 5.817314 -0.1947958 -10.44972
v 5.817314 -0.1947958 -10.44972
v 12.39997 0 -10.44972
v 12.39997 0 -6.736185
v 12.39997 -0.1947958 -13.31885
v 5.817314 0 -13.31885
v 9.530848 -1.192093E-07 -13.31885
v 12.39997 0 -13.31885
v -0.1000199 0 -10.44972
v 2.399975 0 -10.44972
v 2.399975 -0.1947958 -10.44972
v -0.1000199 -0.1947958 -10.44972
v -0.1000199 0 -13.31885
v -0.1000199 0 -10.44972
v -2.600015 0 -10.44972
v -0.1000199 -0.1947958 -10.44972
v -0.1000199 0 -10.44972
v -0.1000199 -0.1947958 -10.15353
v -0.1000199 -0.1947958 -10.44972
v -2.600015 -0.1947958 -10.44972
v -0.1000199 0 -13.31885
v 2.399975 0 -13.31885
v -2.600015 0 -13.31885
v -0.1000199 0 -13.31885
v -0.1000199 -0.1947958 -13.31885
v -2.600015 -0.1947958 -10.44972
v -2.600015 0 -10.44972
v -2.600015 0 -13.31885
v -5.10001 0 -10.44972
v -2.600015 0 -10.44972
v -2.600015 -0.1947958 -10.44972
v -2.600015 -0.1947958 -10.15353
v -5.10001 -0.1947958 -10.44972
v -5.10001 0 -13.31885
v -5.10001 0 -10.44972
v -7.600005 0 -10.44972
v -5.10001 -0.1947958 -10.44972
v -5.10001 0 -10.44972
v -5.10001 -0.1947958 -10.15353
v -5.10001 -0.1947958 -10.44972
v -7.600005 -0.1947958 -10.44972
v -5.10001 -0.1947958 -10.15353
v -2.600015 -0.1947958 -10.15353
v -0.1000199 -0.1947958 -10.15353
v -5.10001 0 -13.31885
v -2.600015 0 -13.31885
v -2.600015 -0.1947958 -13.31885
v -7.600005 0 -13.31885
v -5.10001 0 -13.31885
v -5.10001 -0.1947958 -13.31885
v -4.730879 0 3.812024
v -4.730879 0 3.812024
v -7.600003 0 3.812024
v -7.600003 -0.1947958 3.812024
v -7.600003 -0.1947958 3.812024
v -4.730879 -0.1947958 3.812024
v -7.6 0 6.681152
v -4.730879 0 3.812024
v -4.730879 -0.1947958 3.812024
v -4.730879 0 3.812024
v -4.730879 -0.1947958 6.68115
v -4.730879 0 6.68115
v -4.730879 0 3.812024
v -4.434686 -0.1947958 3.51583
v -4.730879 -0.1947958 3.812024
v -4.730879 -0.1947958 6.68115
v 9.530853 0 4.181155
v 9.530853 0 6.68115
v 9.530853 -0.1947958 6.68115
v 9.530853 -0.1947958 4.181155
v 12.39998 0 4.181155
v 9.530853 0 4.181155
v 9.530853 0 1.68116
v 9.530853 -0.1947958 4.181155
v 9.530853 0 4.181155
v 9.234659 -0.1947958 4.181155
v 9.530853 -0.1947958 4.181155
v 9.530853 -0.1947958 1.68116
v 12.39998 0 4.181155
v 12.39998 0 6.68115
v 12.39998 0 1.68116
v 12.39998 0 4.181155
v 12.39998 -0.1947958 4.181155
v 9.530853 -0.1947958 1.68116
v 9.530853 0 1.68116
v 12.39998 0 1.68116
v 9.530853 0 -0.8188343
v 9.530853 0 1.68116
v 9.530853 -0.1947958 1.68116
v 9.234659 -0.1947958 1.68116
v 9.530853 -0.1947958 -0.8188343
v 12.39998 0 -0.8188343
v 9.530853 0 -0.8188343
v 9.530851 0 -3.318838
v 9.530853 -0.1947958 -0.8188343
v 9.530853 0 -0.8188343
v 9.234659 -0.1947958 -0.8188343
v 9.530853 -0.1947958 -0.8188343
v 9.530851 -0.1947958 -3.318838
v 12.39998 0 -0.8188343
v 12.39998 0 1.68116
v 12.39998 -0.1947958 1.68116
v 12.39998 0 -3.318838
v 12.39998 0 -0.8188343
v 12.39998 -0.1947958 -0.8188343
v 9.530851 -0.1947958 -3.318838
v 9.234655 -0.1947958 -3.318838
v 9.530848 -0.1947958 -6.736185
v 9.234652 -0.1947958 -6.736185
v 9.530848 0 -6.736185
v 9.530851 0 -3.318838
v 9.530848 -0.1947958 -6.736185
v 9.530851 -0.1947958 -3.318838
v 9.530848 -0.1947958 -6.736185
v 12.39997 0 -6.736185
v 12.39998 0 -3.318838
v 9.530848 0 -6.736185
v 9.530851 0 -3.318838
v 12.39998 -0.1947958 -3.318838
v 12.39998 0 -3.318838
v 2.399975 0 -13.31885
v 2.399975 -0.1947958 -13.31885
v 2.399975 0 -13.31885
v 5.817314 0 -13.31885
v 2.399975 0 -10.44972
v 5.817314 0 -10.44972
v 2.399975 -0.1947958 -10.44972
v 2.399975 0 -10.44972
v 5.817314 -0.1947958 -10.44972
v 5.817314 0 -10.44972
v 5.817314 -0.1947958 -10.44972
v 5.817314 -0.1947958 -10.15352
v 2.399975 -0.1947958 -10.15353
v 5.817314 -0.1947958 -10.44972
v 2.399975 -0.1947958 -10.44972
v 9.530848 -1.192093E-07 -13.31885
v 12.39997 0 -13.31885
v 9.530848 0 -10.44972
v 12.39997 0 -10.44972
v -4.434686 -0.1947958 3.51583
v -7.600003 -0.1947958 3.51583
v -4.434684 -0.1947958 6.68115
v 9.234659 -0.1947958 6.68115
v 9.234659 -0.1947958 4.181155
v 9.234659 -0.1947958 1.68116
v 9.234659 -0.1947958 -0.8188343
v 9.234655 -0.1947958 -3.318838
v 2.399975 -0.1947958 -10.15353
v 9.234652 -0.1947958 -10.15352
v 9.234652 -0.1947958 -6.736185
v 5.817314 -0.1947958 -10.15352
v -7.600005 -0.1947958 -10.15353
v -4.081541 -0.1947958 -3.318848
v -4.081541 -0.1947958 -2.873962
v -6.118469 -0.1947958 -3.318848
v -6.118469 -0.1947958 -2.873962
v -6.118469 -0.1947958 -3.318848
v -6.118469 -0.1947958 -3.763733
v -4.081541 -0.1947958 -3.318848
v -4.081541 -0.1947958 -3.763733
v 0.9013457 -0.1947958 -3.318848
v 0.9013457 -0.1947958 -2.873962
v -1.135582 -0.1947958 -3.318848
v -1.135582 -0.1947958 -2.873962
v -1.135582 -0.1947958 -3.318848
v -1.135582 -0.1947958 -3.763733
v 0.9013457 -0.1947958 -3.318848
v 0.9013457 -0.1947958 -3.763733
v 2.399977 -0.1947958 -1.837561
v 2.844862 -0.1947958 -1.837561
v 2.399977 -0.1947958 0.1993666
v 2.844862 -0.1947958 0.1993666
v 2.399977 -0.1947958 0.1993666
v 1.955092 -0.1947958 0.199367
v 2.399977 -0.1947958 -1.837561
v 1.955092 -0.1947958 -1.837561
v 2.399977 -0.1947958 3.20655
v 2.844862 -0.1947958 3.20655
v 2.399977 -0.1947958 5.243478
v 2.844862 -0.1947958 5.243478
v 2.399977 -0.1947958 5.243478
v 1.955092 -0.1947958 5.243478
v 2.399977 -0.1947958 3.20655
v 1.955092 -0.1947958 3.20655

vn -1 0 0
vn 0 1 0
vn 0 1 0
vn 0 1 0
vn 0 1 0
vn 1 0 0
vn -1 0 0
vn -1 0 0
vn 0 1 0
vn 0 1 0
vn 0 0 1
vn 0 0 1
vn 1 0 0
vn 0 0 -1
vn 1 0 0
vn 0 1 0
vn 0 1 0
vn 0 0 1
vn 0 0 1
vn 0 1 0
vn 0 1 0
vn 0 1 0
vn 0 0 1
vn 0 0 -1
vn 0 0 -1
vn 0 1 0
vn 0 1 0
vn 0 0 1
vn 0 0 1
vn 0 1 0
vn 0 1 0
vn 0 1 0
vn 0 0 1
vn 0 0 -1
vn 0 0 -1
vn 0 0 -1
vn 0 1 0
vn 0 1 0
vn 0 1 0
vn 0 1 0
vn 0 1 0
vn 0 0 -1
vn 0 1 0
vn 0 1 0
vn 1 0 0
vn -1 0 0
vn -1 0 0
vn 0 1 0
vn 0 1 0
vn 0 1 0
vn 0 1 0
vn -1 0 0
vn -1 0 0
vn 0 1 0
vn 0 1 0
vn 0 1 0
vn -1 0 0
vn 1 0 0
vn 1 0 0
vn 1 0 0
vn 0 1 0
vn -1 0 0
vn -1 0 0
vn 0 1 0
vn 1 0 0
vn 0 1 0
vn -1 0 0
vn -1 0 0
vn 0 1 0
vn 1 0 0
vn 0 0 -1
vn 0 1 0
vn 0 1 0
vn 0 0 1
vn 0 1 0
vn 0 1 0
vn 0 1 0
vn 0 1 0
vn 0 1 0
vn 0 1 0
vn 0 1 0
vn 0 1 0
vn 0 1 0
vn 0 1 0
vn 0 1 0
vn 0 1 0
vn 0 1 0
vn 0 1 0
vn 0 1 0
vn 0 1 0
vn 0 1 0
vn 0 1 0
vn 0 1 0
vn 0 1 0
vn 0 1 0
vn 0 1 0
vn 0 1 0
vn 0 1 0
vn 0 1 0
vn 0 1 0
vn 0 1 0
vn 0 1 0
vn 0 1 0
vn 0 1 0
vn 0 1 0
vn 0 1 0
vn 0 1 0
vn 0 0 1
vn 0 0 1
vn 0 0 1
vn 0 1 0
vn 0 1 0
vn 0 1 0
vn 0 1 0
vn 1 0 0
vn 1 0 0
vn 0 0 -1
vn 0 0 -1
vn 0 0 -1
vn 0 0 -1
vn 0 1 0
vn 0 1 0
vn 0 1 0
vn 0 1 0
vn 0 1 0
vn 0 1 0
vn 0 0 1
vn 0 0 1
vn 0 0 1
vn 0 1 0
vn 0 1 0
vn 0 1 0
vn 0 0 -1
vn 0 0 -1
vn 0 0 -1
vn 0 0 -1
vn 0 0 -1
vn 0 0 1
vn 0 0 1
vn 0 1 0
vn 0 1 0
vn 0 1 0
vn 0 1 0
vn 0 1 0
vn 0 1 0
vn 0 1 0
vn 0 1 0
vn 0 0 1
vn 0 0 1
vn 0 0 1
vn 0 1 0
vn 0 1 0
vn 0 1 0
vn 0 1 0
vn 0 1 0
vn 0 1 0
vn 0 0 -1
vn 0 0 -1
vn 0 0 -1
vn 0 0 -1
vn 0 0 -1
vn 0 0 -1
vn 0 0 -1
vn 0 0 -1
vn 0 0 -1
vn 0 0 -1
vn 0 1 0
vn 0 1 0
vn 0 1 0
vn 0 1 0
vn 1 0 0
vn 1 0 0
vn 1 0 0
vn 1 0 0
vn 1 0 0
vn 0 1 0
vn 0 1 0
vn 0 1 0
vn 0 1 0
vn 0 1 0
vn 0 1 0
vn 0 1 0
vn 0 1 0
vn 0 1 0
vn -1 0 0
vn -1 0 0
vn -1 0 0
vn 0 1 0
vn 0 1 0
vn 0 1 0
vn 1 0 0
vn 1 0 0
vn 1 0 0
vn 1 0 0
vn 1 0 0
vn -1 0 0
vn -1 0 0
vn 0 1 0
vn 0 1 0
vn 0 1 0
vn 0 1 0
vn 0 1 0
vn 0 1 0
vn 0 1 0
vn 0 1 0
vn -1 0 0
vn -1 0 0
vn -1 0 0
vn 0 1 0
vn 0 1 0
vn 0 1 0
vn 1 0 0
vn 1 0 0
vn 1 0 0
vn 1 0 0
vn 1 0 0
vn 1 0 0
vn 0 1 0
vn 0 1 0
vn 0 1 0
vn 0 1 0
vn -1 0 0
vn -1 0 0
vn -1 0 0
vn -1 0 0
vn -1 0 0
vn 0 1 0
vn 0 1 0
vn 0 1 0
vn 0 1 0
vn 1 0 0
vn 1 0 0
vn 0 0 -1
vn 0 0 -1
vn 0 1 0
vn 0 1 0
vn 0 1 0
vn 0 1 0
vn 0 0 1
vn 0 0 1
vn 0 0 1
vn 0 0 1
vn 0 0 1
vn 0 1 0
vn 0 1 0
vn 0 1 0
vn 0 1 0
vn 0 1 0
vn 0 1 0
vn 0 1 0
vn 0 1 0
vn 0 1 0
vn 0 1 0
vn 0 1 0
vn 0 1 0
vn 0 1 0
vn 0 1 0
vn 0 1 0
vn 0 1 0
vn 0 1 0
vn 0 1 0
vn 0 1 0
vn 0 1 0
vn 0 1 0
vn 0 1 0
vn 0 1 0
vn 0 1 0
vn 0 1 0
vn 0 1 0
vn 0 1 0
vn 0 1 0
vn 0 1 0
vn 0 1 0
vn 0 1 0
vn 0 1 0
vn 0 1 0
vn 0 1 0
vn 0 1 0
vn 0 1 0
vn 0 1 0
vn 0 1 0
vn 0 1 0
vn 0 1 0
vn 0 1 0
vn 0 1 0
vn 0 1 0
vn 0 1 0
vn 0 1 0
vn 0 1 0
vn 0 1 0
vn 0 1 0
vn 0 1 0
vn 0 1 0
vn 0 1 0
vn 0 1 0
vn 0 1 0

vt 0.3410731 1
vt 0.3178974 1
vt 0.01015025 1
vt 0.01015025 1
vt 0.3754144 1
vt 0.3241934 0.6368313
vt 0.3178974 0.7909375
vt 0.3410732 0.9537286
vt 0.3754144 0.9537286
vt 0.3754145 1
vt 0.3178974 1
vt 0.3410732 1
vt 0.3241934 0.6614025
vt 0.3278044 0.6614025
vt 0.3259989 0.6614025
vt 0.01015025 1
vt 0.01015025 0.501405
vt 0.3178974 0.501405
vt 0.3410732 0.5147038
vt 0.3754144 0.5147038
vt 0.3754144 1
vt 0.3178974 1
vt 0.3410731 1
vt 0.3241934 0.6614025
vt 0.3241934 0.6614025
vt 0.01015025 1
vt 0.01015025 0.501405
vt 0.3178974 0.501405
vt 0.3410732 0.5147038
vt 0.3754144 0.5147038
vt 0.3754144 1
vt 0.3178974 1
vt 0.3410731 1
vt 0.3241934 0.6614025
vt 0.3241934 0.6614025
vt 0.3410731 1.788139E-07
vt 0.3178974 1.788139E-07
vt 0.01225932 1.788139E-07
vt 0.3754143 1.788139E-07
vt 0.3754144 0.2500001
vt 0.3178974 0.2375465
vt 0.3410731 0.2383814
vt 0.3754144 0.2500001
vt 0.3178974 0.2375465
vt 0.3410731 0.2383814
vt 0.3410732 1
vt 0.3178974 1
vt 0.01015025 1
vt 0.01015025 1
vt 0.3754145 1
vt 0.01015025 0.501405
vt 0.3178974 0.501405
vt 0.3410732 0.5147038
vt 0.3754144 0.5147038
vt 0.3754144 1
vt 0.3178974 1
vt 0.3410731 1
vt 0.3278044 0.6614025
vt 0.3241934 0.6614025
vt 0.3241934 0.6614025
vt 0.01015025 0.501405
vt 0.3178974 0.501405
vt 0.3410732 0.5147038
vt 0.3754144 0.5147038
vt 0.3241934 0.6614025
vt 0.3754144 0.1590559
vt 0.3410732 0.1590559
vt 0.3178974 -0.00373517
vt 0.01015025 -0.00373517
vt 0.3269017 0.6614025
vt 0.3250961 0.6614025
vt 0.01015025 -0.00373517
vt 0.3178974 -0.00373517
vt 0.3410732 0.1590559
vt 0.3754144 0.1590559
vt 0.01015025 0.7909375
vt 0.01015025 0.7909375
vt 0.68867 0.7224386
vt 0.68867 0.7301089
vt 0.690023 0.7224386
vt 0.68867 0.725536
vt 0.690023 0.725536
vt 0.690023 0.7301089
vt 0.690023 0.7332063
vt 0.6839702 0.7347823
vt 0.68867 0.7332063
vt 0.6870676 0.7347823
vt 0.6870676 0.7361354
vt 0.676393 0.7347823
vt 0.6794904 0.7347823
vt 0.6794904 0.7361354
vt 0.6839702 0.7361354
vt 0.676393 0.7361354
vt 0.676393 0.7354589
vt 0.6794904 0.7354589
vt 0.6839702 0.7354589
vt 0.6870676 0.7354589
vt 0.6893465 0.7301089
vt 0.6893465 0.7332063
vt 0.6893465 0.7224386
vt 0.6893465 0.725536
vt 0.3178974 0.7909375
vt 0.3178974 -0.00373517
vt 0.3410732 0.1590559
vt 0.3410732 0.9537286
vt 0.3410732 0.1590559
vt 0.3178974 0.7909375
vt 0.3178974 -0.00373517
vt 0.3178974 0.7909375
vt 0.3410732 0.9537286
vt 0.3410732 0.9537286
vt 0.3754144 0.9537286
vt 0.3410732 0.1590559
vt 0.3410732 0.1590559
vt 0.3250961 0.6368313
vt 0.3259989 0.6368313
vt 0.3259989 0.6614025
vt 0.3259989 0.6368313
vt 0.3269017 0.6368313
vt 0.3278044 0.6368313
vt 0.3178974 0.501405
vt 0.3178974 1
vt 0.3410732 1
vt 0.3410732 0.5147038
vt 0.01015025 0.501405
vt 0.3178974 0.501405
vt 0.3178974 1
vt 0.3410732 0.5147038
vt 0.3178974 0.501405
vt 0.3754144 0.5147038
vt 0.3410732 0.5147038
vt 0.3410731 1
vt 0.3241934 0.6368313
vt 0.3278044 0.6368313
vt 0.3241934 0.6368313
vt 0.3278044 0.6368313
vt 0.3278044 0.6614025
vt 0.3410732 1
vt 0.3178974 1
vt 0.01015025 1
vt 0.3178974 0.501405
vt 0.3178974 1
vt 0.3410732 1
vt 0.3754145 1
vt 0.3410732 0.5147038
vt 0.01015025 0.501405
vt 0.3178974 0.501405
vt 0.3178974 1
vt 0.3410732 0.5147038
vt 0.3178974 0.501405
vt 0.3754144 0.5147038
vt 0.3410732 0.5147038
vt 0.3410731 1
vt 0.6779417 0.7458519
vt 0.6817433 0.7458519
vt 0.6855449 0.7458519
vt 0.3241934 0.6368313
vt 0.3278044 0.6368313
vt 0.3278044 0.6614025
vt 0.3241934 0.6368313
vt 0.3278044 0.6368313
vt 0.3278044 0.6614025
vt 0.3178974 1.788139E-07
vt 0.3178974 1.788139E-07
vt 0.3178974 0.2375465
vt 0.3410731 0.2383814
vt 0.3410731 0.2383814
vt 0.3410731 1.788139E-07
vt 0.01225932 1.788139E-07
vt 0.3178974 1.788139E-07
vt 0.3410731 1.788139E-07
vt 0.3178974 1.788139E-07
vt 0.3410731 0.2383814
vt 0.3178974 0.2375465
vt 0.3178974 1.788139E-07
vt 0.3754143 1.788139E-07
vt 0.3410731 1.788139E-07
vt 0.3410731 0.2383814
vt 0.3178974 0.501405
vt 0.3178974 1
vt 0.3410732 1
vt 0.3410732 0.5147038
vt 0.01015025 0.501405
vt 0.3178974 0.501405
vt 0.3178974 1
vt 0.3410732 0.5147038
vt 0.3178974 0.501405
vt 0.3754144 0.5147038
vt 0.3410732 0.5147038
vt 0.3410731 1
vt 0.3241934 0.6368313
vt 0.3278044 0.6368313
vt 0.3241934 0.6368313
vt 0.3278044 0.6368313
vt 0.3278044 0.6614025
vt 0.3410732 1
vt 0.3178974 1
vt 0.01015025 1
vt 0.3178974 0.501405
vt 0.3178974 1
vt 0.3410732 1
vt 0.3754145 1
vt 0.3410732 0.5147038
vt 0.01015025 0.501405
vt 0.3178974 0.501405
vt 0.3178974 1
vt 0.3410732 0.5147038
vt 0.3178974 0.501405
vt 0.3754144 0.5147038
vt 0.3410732 0.5147038
vt 0.3410731 1
vt 0.3241934 0.6368313
vt 0.3278044 0.6368313
vt 0.3278044 0.6614025
vt 0.3241934 0.6368313
vt 0.3278044 0.6368313
vt 0.3278044 0.6614025
vt 0.3410732 0.9537284
vt 0.3754145 0.9537284
vt 0.3410732 0.1590559
vt 0.3754144 0.1590559
vt 0.3178974 -0.00373517
vt 0.3178974 0.9537284
vt 0.3410732 0.1590559
vt 0.3410732 0.9537284
vt 0.3410732 0.1590559
vt 0.01015025 -0.00373517
vt 0.01015025 0.9537286
vt 0.3178974 -0.00373517
vt 0.3178974 0.9537284
vt 0.3278044 0.6614025
vt 0.3278044 0.6368313
vt 0.3241934 0.6368313
vt 0.3241934 0.6614025
vt 0.01015025 0.9537286
vt 0.01015025 -0.00373517
vt 0.3178974 0.9537284
vt 0.3178974 -0.00373517
vt 0.3410731 0.9537284
vt 0.3178974 0.9537284
vt 0.3410732 0.1590559
vt 0.3178974 -0.00373517
vt 0.3410732 0.1590559
vt 0.3754144 0.1590559
vt 0.3754144 0.9537284
vt 0.3410732 0.1590559
vt 0.3410731 0.9537284
vt 0.01015025 0.7909375
vt 0.01015025 0.7909375
vt 0.3178974 0.7909375
vt 0.01015025 0.7909375
vt 0.6789534 0.7250658
vt 0.6741402 0.7250657
vt 0.6789534 0.7202525
vt 0.6997396 0.7202525
vt 0.6997396 0.724054
vt 0.6997396 0.7278556
vt 0.6997396 0.7316573
vt 0.6997396 0.7354589
vt 0.6893465 0.7458519
vt 0.6997396 0.7458519
vt 0.6997396 0.7406553
vt 0.6945431 0.7458519
vt 0.6741402 0.7458519
vt 0.710584 0.2657952
vt 0.6575721 0.2657952
vt 0.710584 0.5077086
vt 0.6575721 0.5077086
vt 0.710584 0.2657952
vt 0.6575721 0.2657952
vt 0.710584 0.5077086
vt 0.6575721 0.5077086
vt 0.710584 0.2657952
vt 0.6575721 0.2657952
vt 0.710584 0.5077086
vt 0.6575721 0.5077086
vt 0.710584 0.2657952
vt 0.6575721 0.2657952
vt 0.710584 0.5077086
vt 0.6575721 0.5077086
vt 0.710584 0.2657952
vt 0.6575721 0.2657952
vt 0.710584 0.5077086
vt 0.6575721 0.5077086
vt 0.710584 0.2657952
vt 0.6575721 0.2657952
vt 0.710584 0.5077086
vt 0.6575721 0.5077086
vt 0.710584 0.2657952
vt 0.6575721 0.2657952
vt 0.710584 0.5077086
vt 0.6575721 0.5077086
vt 0.710584 0.2657952
vt 0.6575721 0.2657952
vt 0.710584 0.5077086
vt 0.6575721 0.5077086

g g_01
usemtl Road
f 7/7/7 8/8/8 67/67/67
f 68/68/68 7/7/7 67/67/67
f 69/69/69 77/77/77 102/102/102
f 103/103/103 69/69/69 102/102/102
f 9/9/9 66/66/66 104/104/104
f 105/105/105 9/9/9 106/106/106
f 76/76/76 72/72/72 73/73/73
f 107/107/107 76/76/76 73/73/73
f 109/109/109 108/108/108 74/74/74
f 110/110/110 109/109/109 74/74/74
f 112/112/112 111/111/111 113/113/113
f 75/75/75 112/112/112 114/114/114
f 15/15/15 6/6/6 115/115/115
f 70/70/70 15/15/15 115/115/115
f 70/70/70 115/115/115 116/116/116
f 231/231/231 70/70/70 116/116/116
f 232/232/232 231/231/231 116/116/116
f 117/117/117 71/71/71 118/118/118
f 117/117/117 118/118/118 119/119/119
f 117/117/117 119/119/119 120/120/120
f 71/71/71 234/234/234 118/118/118
f 234/234/234 233/233/233 118/118/118
f 18/18/18 19/19/19 12/12/12
f 11/11/11 18/18/18 12/12/12
f 4/4/4 17/17/17 121/121/121
f 122/122/122 4/4/4 121/121/121
f 10/10/10 123/123/123 124/124/124
f 20/20/20 10/10/10 124/124/124
f 125/125/125 16/16/16 22/22/22
f 126/126/126 125/125/125 22/22/22
f 127/127/127 23/23/23 128/128/128
f 129/129/129 127/127/127 128/128/128
f 21/21/21 130/130/130 131/131/131
f 132/132/132 21/21/21 131/131/131
f 24/24/24 133/133/133 134/134/134
f 14/14/14 24/24/24 134/134/134
f 25/25/25 135/135/135 136/136/136
f 137/137/137 25/25/25 136/136/136
f 28/28/28 29/29/29 138/138/138
f 139/139/139 28/28/28 138/138/138
f 140/140/140 27/27/27 141/141/141
f 142/142/142 140/140/140 141/141/141
f 144/144/144 143/143/143 145/145/145
f 30/30/30 144/144/144 145/145/145
f 146/146/146 26/26/26 32/32/32
f 147/147/147 146/146/146 32/32/32
f 148/148/148 33/33/33 149/149/149
f 150/150/150 148/148/148 149/149/149
f 31/31/31 151/151/151 152/152/152
f 153/153/153 31/31/31 152/152/152
f 155/155/155 154/154/154 91/91/91
f 155/155/155 91/91/91 92/92/92
f 156/156/156 155/155/155 92/92/92
f 156/156/156 92/92/92 88/88/88
f 260/260/260 156/156/156 88/88/88
f 88/88/88 263/263/263 260/260/260
f 88/88/88 84/84/84 263/263/263
f 99/99/99 84/84/84 88/88/88
f 84/84/84 262/262/262 263/263/263
f 262/262/262 261/261/261 263/263/263
f 84/84/84 259/259/259 262/262/262
f 84/84/84 258/258/258 259/259/259
f 84/84/84 83/83/83 258/258/258
f 83/83/83 257/257/257 258/258/258
f 83/83/83 82/82/82 257/257/257
f 101/101/101 82/82/82 83/83/83
f 82/82/82 256/256/256 257/257/257
f 82/82/82 80/80/80 256/256/256
f 80/80/80 255/255/255 256/256/256
f 100/100/100 255/255/255 80/80/80
f 81/81/81 101/101/101 83/83/83
f 98/98/98 81/81/81 83/83/83
f 79/79/79 81/81/81 98/98/98
f 252/252/252 81/81/81 79/79/79
f 253/253/253 252/252/252 79/79/79
f 81/81/81 252/252/252 78/78/78
f 78/78/78 255/255/255 100/100/100
f 252/252/252 254/254/254 78/78/78
f 78/78/78 254/254/254 255/255/255
f 89/89/89 253/253/253 79/79/79
f 90/90/90 89/89/89 79/79/79
f 85/85/85 90/90/90 79/79/79
f 85/85/85 79/79/79 86/86/86
f 85/85/85 86/86/86 87/87/87
f 95/95/95 90/90/90 85/85/85
f 264/264/264 253/253/253 89/89/89
f 91/91/91 95/95/95 85/85/85
f 96/96/96 91/91/91 85/85/85
f 92/92/92 91/91/91 96/96/96
f 87/87/87 86/86/86 97/97/97
f 97/97/97 86/86/86 88/88/88
f 264/264/264 89/89/89 94/94/94
f 93/93/93 264/264/264 94/94/94
f 154/154/154 264/264/264 93/93/93
f 91/91/91 154/154/154 93/93/93
f 86/86/86 99/99/99 88/88/88
f 34/34/34 157/157/157 158/158/158
f 159/159/159 34/34/34 158/158/158
f 35/35/35 160/160/160 161/161/161
f 162/162/162 35/35/35 161/161/161
f 41/41/41 38/38/38 37/37/37
f 163/163/163 36/36/36 42/42/42
f 165/165/165 164/164/164 166/166/166
f 40/40/40 167/167/167 168/168/168
f 39/39/39 40/40/40 168/168/168
f 170/170/170 169/169/169 44/44/44
f 45/45/45 171/171/171 172/172/172
f 174/174/174 173/173/173 175/175/175
f 43/43/43 176/176/176 177/177/177
f 178/178/178 43/43/43 177/177/177
f 52/52/52 53/53/53 46/46/46
f 47/47/47 52/52/52 46/46/46
f 48/48/48 51/51/51 179/179/179
f 180/180/180 48/48/48 179/179/179
f 50/50/50 181/181/181 182/182/182
f 54/54/54 50/50/50 182/182/182
f 183/183/183 49/49/49 56/56/56
f 184/184/184 183/183/183 56/56/56
f 185/185/185 57/57/57 186/186/186
f 187/187/187 185/185/185 186/186/186
f 55/55/55 188/188/188 189/189/189
f 190/190/190 55/55/55 189/189/189
f 59/59/59 191/191/191 192/192/192
f 58/58/58 59/59/59 192/192/192
f 60/60/60 193/193/193 194/194/194
f 195/195/195 60/60/60 194/194/194
f 62/62/62 63/63/63 196/196/196
f 197/197/197 62/62/62 196/196/196
f 198/198/198 61/61/61 199/199/199
f 200/200/200 198/198/198 199/199/199
f 202/202/202 201/201/201 203/203/203
f 64/64/64 202/202/202 203/203/203
f 204/204/204 3/3/3 2/2/2
f 205/205/205 204/204/204 2/2/2
f 206/206/206 1/1/1 207/207/207
f 208/208/208 206/206/206 207/207/207
f 5/5/5 209/209/209 210/210/210
f 211/211/211 5/5/5 210/210/210
f 65/65/65 212/212/212 213/213/213
f 214/214/214 65/65/65 213/213/213
f 13/13/13 215/215/215 216/216/216
f 217/217/217 13/13/13 216/216/216
f 219/219/219 218/218/218 220/220/220
f 221/221/221 219/219/219 220/220/220
f 223/223/223 222/222/222 224/224/224
f 225/225/225 223/223/223 226/226/226
f 228/228/228 227/227/227 229/229/229
f 230/230/230 228/228/228 229/229/229
f 236/236/236 235/235/235 237/237/237
f 238/238/238 236/236/236 237/237/237
f 240/240/240 239/239/239 241/241/241
f 242/242/242 240/240/240 243/243/243
f 245/245/245 244/244/244 246/246/246
f 247/247/247 245/245/245 246/246/246
f 249/249/249 248/248/248 250/250/250
f 251/251/251 249/249/249 250/250/250
f 266/266/266 265/265/265 267/267/267
f 268/268/268 266/266/266 267/267/267
f 270/270/270 269/269/269 271/271/271
f 272/272/272 270/270/270 271/271/271
f 274/274/274 273/273/273 275/275/275
f 276/276/276 274/274/274 275/275/275
f 278/278/278 277/277/277 279/279/279
f 280/280/280 278/278/278 279/279/279
f 282/282/282 281/281/281 283/283/283
f 284/284/284 282/282/282 283/283/283
f 286/286/286 285/285/285 287/287/287
f 288/288/288 286/286/286 287/287/287
f 290/290/290 289/289/289 291/291/291
f 292/292/292 290/290/290 291/291/291
f 294/294/294 293/293/293 295/295/295
f 296/296/296 294/294/294 295/295/295
